<svg width="119" height="185" viewBox="0 0 119 185" fill="none" xmlns="http://www.w3.org/2000/svg">
<path d="M2.55618 127.357L24.7716 35.622C31.5253 7.69902 51.5852 -4.32138 81.2009 2.85348C110.817 10.0283 123.146 29.9138 116.392 57.8368L94.1767 149.571C87.423 177.494 67.363 189.529 37.7473 182.34C8.13158 175.151 -4.19753 155.28 2.55618 127.357ZM62.7504 135.811C62.0175 132.777 61.5721 129.902 63.1671 126.925C64.8484 123.791 68.0672 121.677 70.3232 118.888C73.8868 114.502 74.8783 108.679 74.8927 103.086C74.8927 97.4926 74.0592 91.8706 74.3898 86.2918C74.5909 83.0135 74.1599 79.6345 75.6399 76.6726C77.12 73.7106 79.0311 71.5395 82.0775 70.116C82.7241 69.3971 83.342 68.6638 83.9168 67.9161C92.6679 56.6721 94.1767 41.5747 82.7098 29.0511C75.9273 22.2069 67.363 22.7389 60.5662 27.5845C55.3932 31.5242 52.8785 36.1109 54.3442 41.661C56.1116 45.9889 62.4486 48.8215 64.2161 53.1494C66.3428 58.8576 64.0149 61.2157 60.3938 62.8836C59.6178 63.2143 58.6838 63.5307 57.6923 63.847C52.9791 64.7241 48.4095 66.2194 46.1823 69.5696C38.006 80.7273 45.2913 94.847 42.6186 107.256C42.4318 108.147 42.0582 109.039 41.0954 109.973C25.1452 121.634 24.8147 146.236 42.2163 155.654C54.6028 162.555 67.478 150.089 63.1959 137.623C63.0378 137.005 62.8797 136.401 62.736 135.797L62.7504 135.811Z" fill="white"/>
</svg>
